<?xml version="1.0" encoding="UTF-8" standalone="no"?>
<!-- Created with Inkscape (http://www.inkscape.org/) -->

<svg
   width="127.47255mm"
   height="37.010139mm"
   viewBox="0 0 127.47255 37.01014"
   version="1.1"
   id="svg1"
   inkscape:version="1.3.2 (091e20e, 2023-11-25, custom)"
   sodipodi:docname="CELESTARA2.svg"
   xmlns:inkscape="http://www.inkscape.org/namespaces/inkscape"
   xmlns:sodipodi="http://sodipodi.sourceforge.net/DTD/sodipodi-0.dtd"
   xmlns="http://www.w3.org/2000/svg"
   xmlns:svg="http://www.w3.org/2000/svg">
  <sodipodi:namedview
     id="namedview1"
     pagecolor="#505050"
     bordercolor="#eeeeee"
     borderopacity="1"
     inkscape:showpageshadow="0"
     inkscape:pageopacity="0"
     inkscape:pagecheckerboard="0"
     inkscape:deskcolor="#505050"
     inkscape:document-units="mm"
     inkscape:zoom="0.69219276"
     inkscape:cx="239.81759"
     inkscape:cy="71.511872"
     inkscape:window-width="1920"
     inkscape:window-height="991"
     inkscape:window-x="-9"
     inkscape:window-y="-9"
     inkscape:window-maximized="1"
     inkscape:current-layer="svg1" />
  <defs
     id="defs1" />
  <g
     id="g292"
     transform="matrix(0.13229166,0,0,0.13229166,-199.9825,-55.898399)">
    <path
       fill="none"
       stroke-width="40"
       stroke-linecap="butt"
       stroke-linejoin="miter"
       stroke="#07d7fb"
       stroke-opacity="1"
       stroke-miterlimit="10"
       d="m 24729.414,15975.781 -92.695,-160.468 -703.321,-1218.321 h -7997.382 l -796.133,1378.789 796.133,1378.828 h 7997.382 z m 0,0"
       transform="matrix(0.1,0,0,-0.1,0,2160)"
       id="path121" />
    <path
       fill-rule="nonzero"
       fill="#07d7fb"
       fill-opacity="1"
       d="m 1974.8906,662.51953 h 158.5977 l -21.8086,37.78125 h -158.6016 l 21.8125,-37.78125"
       id="path148" />
    <path
       fill-rule="nonzero"
       fill="#07d7fb"
       fill-opacity="1"
       d="m 2463.6719,578.46875 -70.3321,121.83203 h -190.6992 l 21.8086,-37.78125 h 99.7422 l 48.5195,-84.05078 h 90.961"
       id="path149" />
    <path
       style="fill:#ffffff;fill-opacity:1;stroke-width:0.00502708"
       d="m 85.939737,42.166243 c -0.807609,-0.175456 -1.706265,-0.66942 -2.106529,-1.157893 -0.716327,-0.874178 -1.020646,-1.965164 -1.018615,-3.651734 0.0027,-2.274166 0.637595,-3.658912 2.007095,-4.377867 0.818525,-0.429705 1.268293,-0.494532 3.915907,-0.564401 l 2.388869,-0.06304 v 1.017102 1.017105 l -2.388869,0.03025 c -2.258762,0.0286 -2.410909,0.04203 -2.79349,0.246526 -0.875207,0.467823 -1.238278,1.393019 -1.167871,2.97605 0.0738,1.659385 0.601729,2.405978 1.866648,2.639814 0.308945,0.05711 1.444135,0.103836 2.522648,0.103836 h 1.960934 v 0.9652 0.9652 l -2.292349,-0.0077 c -1.541068,-0.0052 -2.489656,-0.05054 -2.894378,-0.138472 z m 8.878438,0.0069 c -0.737809,-0.178721 -1.368892,-0.606253 -1.7105,-1.158793 -0.274559,-0.44409 -0.292111,-0.530929 -0.292111,-1.445247 0,-0.845645 0.02977,-1.02472 0.22782,-1.370308 0.1253,-0.218644 0.391276,-0.500822 0.591054,-0.627063 l 0.363235,-0.229523 -0.365504,-0.217964 c -0.992703,-0.591976 -1.151662,-2.739024 -0.276573,-3.735693 0.161475,-0.183911 0.537574,-0.453752 0.835778,-0.599648 0.522382,-0.25558 0.618205,-0.267793 2.623566,-0.334429 1.14476,-0.03804 2.570016,-0.07243 3.167233,-0.07642 l 1.085847,-0.0073 v 1.01346 1.01346 h -2.657398 c -2.937388,0 -3.193834,0.04194 -3.465208,0.566723 -0.22274,0.430733 -0.185641,0.742941 0.130324,1.096729 l 0.281514,0.315208 2.807126,0.02831 2.807122,0.02831 v 0.908584 0.908587 l -2.792888,0.02831 -2.792891,0.02831 -0.295749,0.283491 c -0.230426,0.220871 -0.295748,0.366175 -0.295748,0.657854 0,0.515242 0.140753,0.733356 0.611037,0.946883 0.36289,0.164767 0.660795,0.182922 3.032593,0.184833 l 2.630166,0.0021 v 0.9652 0.9652 l -2.871466,-0.0082 c -1.967626,-0.0056 -3.03103,-0.04686 -3.378379,-0.131 z m 10.887185,0.03378 c -0.65485,-0.128367 -1.41049,-0.539083 -1.77473,-0.964617 -0.18015,-0.210455 -0.42015,-0.664776 -0.53335,-1.009605 -0.19526,-0.594807 -0.20582,-0.812464 -0.20582,-4.24443 v -3.617476 h 0.96177 0.96176 l 0.0276,3.516046 c 0.0267,3.401374 0.0342,3.524927 0.23069,3.788409 0.11172,0.149802 0.35061,0.359233 0.53086,0.465405 0.29794,0.175493 0.53612,0.196046 2.62008,0.226068 l 2.29235,0.03303 v 0.956302 0.956302 l -2.34061,-0.01057 c -1.28733,-0.0058 -2.53409,-0.04851 -2.77057,-0.09486 z m 8.44112,-0.03427 c -0.70837,-0.180959 -0.95398,-0.296574 -1.32837,-0.62529 -0.49323,-0.433067 -0.75807,-1.123339 -0.75504,-1.967926 0.004,-1.11584 0.26268,-1.694799 0.91397,-2.045538 l 0.3404,-0.183319 -0.35736,-0.200459 c -0.20885,-0.11715 -0.45777,-0.379757 -0.59894,-0.631883 -0.2106,-0.376108 -0.24154,-0.548987 -0.24131,-1.348365 2.7e-4,-0.754927 0.037,-0.985155 0.20833,-1.30302 0.27984,-0.519268 0.65915,-0.862936 1.2392,-1.122766 0.43015,-0.192683 0.70814,-0.223927 2.55778,-0.287477 1.14135,-0.03921 2.56382,-0.07456 3.16103,-0.07856 l 1.08585,-0.0073 v 1.01346 1.01346 h -2.70735 c -2.90003,0 -3.0819,0.02681 -3.41581,0.503525 -0.32422,0.462887 -0.0849,1.23346 0.43995,1.416411 0.19567,0.06822 1.26365,0.106984 2.94679,0.106984 h 2.6399 v 0.91694 0.91694 h -2.64802 c -1.45832,0 -2.75751,0.04163 -2.89174,0.09267 -0.43841,0.166685 -0.63752,0.450194 -0.63752,0.907777 0,0.527262 0.26484,0.887196 0.75242,1.022615 0.20381,0.05661 1.46777,0.09954 2.93947,0.09984 l 2.58191,5.29e-4 v 0.9652 0.9652 l -2.87147,-0.0082 c -1.98879,-0.0057 -3.01982,-0.04611 -3.35407,-0.131495 z m 8.15594,-0.8255 v -0.9652 h 2.85043 c 3.08341,0 3.35033,-0.03755 3.66342,-0.515387 0.19178,-0.292703 0.21769,-0.762932 0.0585,-1.060495 -0.2412,-0.450657 -0.42828,-0.49222 -2.51847,-0.559485 -2.24861,-0.07237 -2.784,-0.18664 -3.37465,-0.720249 -0.62655,-0.566042 -0.81786,-1.085794 -0.81409,-2.211684 0.004,-1.065609 0.12007,-1.445633 0.6166,-2.011137 0.56009,-0.637907 1.0592,-0.768493 3.23432,-0.846182 1.06172,-0.03792 2.44075,-0.07291 3.06451,-0.07774 l 1.13411,-0.0088 v 1.01346 1.01346 h -2.75823 -2.75826 l -0.2772,0.277193 c -0.50509,0.50509 -0.45673,1.065274 0.1294,1.499148 0.24846,0.183912 0.44663,0.206045 2.31651,0.258723 1.32725,0.03739 2.1633,0.102389 2.38258,0.185224 1.17247,0.442908 1.693,1.293432 1.68334,2.750492 -0.011,1.667594 -0.70642,2.560447 -2.21086,2.838555 -0.33115,0.06122 -1.79469,0.105305 -3.49578,0.105305 h -2.92614 z m 12.16152,-2.99212 v -3.95732 h -1.39954 -1.39954 v -1.01346 -1.01346 h 3.81254 3.81254 v 1.01346 1.01346 h -1.39954 -1.39954 v 3.95732 3.95732 h -1.01346 -1.01346 z m 4.56313,3.78841 c 0.12468,-0.428054 3.2811,-8.57677 3.4519,-8.911581 0.10615,-0.208038 0.37349,-0.497744 0.59408,-0.643791 0.37097,-0.24559 0.47415,-0.265538 1.37349,-0.265538 1.09362,0 1.55242,0.154186 1.89645,0.637349 0.10798,0.151649 0.91101,2.220268 1.78446,4.59693 0.87348,2.376662 1.63031,4.418927 1.68184,4.538371 l 0.0937,0.21717 h -1.08909 -1.08909 l -1.49076,-3.968279 c -0.81989,-2.182553 -1.55093,-3.991977 -1.6245,-4.02094 -0.0736,-0.02896 -0.19736,-0.01255 -0.27508,0.03648 -0.0777,0.04903 -0.83842,1.85845 -1.69041,4.020942 l -1.54909,3.931798 h -1.05856 c -0.96253,0 -1.05408,-0.01532 -1.00934,-0.168911 z m 12.24781,-2.12344 c 0.0345,-2.490774 0.0688,-2.66692 0.59358,-3.055826 0.25497,-0.188958 0.42903,-0.204777 2.75082,-0.249984 1.68022,-0.03271 2.54415,-0.08586 2.68209,-0.164989 0.53881,-0.309057 0.72634,-1.152781 0.36457,-1.640038 -0.36884,-0.496739 -0.45038,-0.5085 -3.53605,-0.510031 l -2.87147,-0.0014 v -0.989329 -0.98933 l 3.06453,0.02913 c 3.40221,0.03234 3.7678,0.08353 4.48082,0.62736 0.25887,0.197454 0.52518,0.531388 0.70618,0.88547 0.26334,0.515221 0.29056,0.655155 0.29056,1.494011 0,0.852551 -0.0252,0.976704 -0.31939,1.574239 -0.31942,0.648769 -0.78362,1.084588 -1.40809,1.322014 l -0.24602,0.09354 1.10377,1.909637 1.10377,1.909638 -0.97918,0.0277 c -0.53855,0.01523 -1.02987,0.0082 -1.09185,-0.01553 -0.062,-0.02378 -0.58611,-0.849879 -1.16475,-1.835777 l -1.05217,-1.792544 -1.23063,-0.0017 -1.23063,-0.0017 v 1.83388 1.83388 h -1.02113 -1.0211 z m 11.33426,-2.31648 c 1.92812,-5.024449 1.96348,-5.091616 2.80446,-5.325136 0.47152,-0.130928 1.42282,-0.132615 1.88827,-0.0033 0.42615,0.118355 0.89664,0.492752 1.09063,0.867888 0.15418,0.298129 3.32816,8.876773 3.32816,8.995327 0,0.04076 -0.47237,0.0741 -1.04973,0.0741 h -1.04973 l -0.53979,-1.42367 c -0.29687,-0.783019 -0.96465,-2.548541 -1.48392,-3.923384 -0.52535,-1.390946 -1.01547,-2.544394 -1.10495,-2.600443 -0.11351,-0.07109 -0.19975,-0.06842 -0.29315,0.0091 -0.0728,0.0604 -0.82553,1.871254 -1.67277,4.024112 l -1.54045,3.914291 h -1.07283 -1.07282 z"
       id="path1-9"
       transform="matrix(7.5590556,0,0,7.5590556,1029.8928,282.65832)" />
  </g>
</svg>
