<?xml version="1.0" encoding="UTF-8" standalone="no"?>
<!-- Created with Inkscape (http://www.inkscape.org/) -->

<svg
   width="127.47255mm"
   height="37.010139mm"
   viewBox="0 0 127.47255 37.01014"
   version="1.1"
   id="svg1"
   inkscape:version="1.3.2 (091e20e, 2023-11-25, custom)"
   sodipodi:docname="GOVERNMENT2.svg"
   xmlns:inkscape="http://www.inkscape.org/namespaces/inkscape"
   xmlns:sodipodi="http://sodipodi.sourceforge.net/DTD/sodipodi-0.dtd"
   xmlns="http://www.w3.org/2000/svg"
   xmlns:svg="http://www.w3.org/2000/svg">
  <sodipodi:namedview
     id="namedview1"
     pagecolor="#505050"
     bordercolor="#eeeeee"
     borderopacity="1"
     inkscape:showpageshadow="0"
     inkscape:pageopacity="0"
     inkscape:pagecheckerboard="0"
     inkscape:deskcolor="#505050"
     inkscape:document-units="mm"
     inkscape:zoom="0.69219276"
     inkscape:cx="239.81759"
     inkscape:cy="71.511872"
     inkscape:window-width="1902"
     inkscape:window-height="973"
     inkscape:window-x="15"
     inkscape:window-y="56"
     inkscape:window-maximized="0"
     inkscape:current-layer="g292" />
  <defs
     id="defs1" />
  <g
     id="g292"
     transform="matrix(0.13229166,0,0,0.13229166,-199.9825,-55.898399)">
    <path
       fill="none"
       stroke-width="40"
       stroke-linecap="butt"
       stroke-linejoin="miter"
       stroke="#07d7fb"
       stroke-opacity="1"
       stroke-miterlimit="10"
       d="m 24729.414,15975.781 -92.695,-160.468 -703.321,-1218.321 h -7997.382 l -796.133,1378.789 796.133,1378.828 h 7997.382 z m 0,0"
       transform="matrix(0.1,0,0,-0.1,0,2160)"
       id="path121" />
    <path
       fill-rule="nonzero"
       fill="#07d7fb"
       fill-opacity="1"
       d="m 1974.8906,662.51953 h 158.5977 l -21.8086,37.78125 h -158.6016 l 21.8125,-37.78125"
       id="path148" />
    <path
       fill-rule="nonzero"
       fill="#07d7fb"
       fill-opacity="1"
       d="m 2463.6719,578.46875 -70.3321,121.83203 h -190.6992 l 21.8086,-37.78125 h 99.7422 l 48.5195,-84.05078 h 90.961"
       id="path149" />
    <path
       style="fill:#ffffff;stroke:none;stroke-width:0.00529167"
       d="m 61.53124,22.768238 h 1.524 v -2.539999 -1.6256 c 0,-0.355804 -0.217594,-2.23403 0.39325,-2.141595 0.496437,0.07512 0.838094,1.338135 1.015047,1.735195 0.552159,1.23894 1.06979,3.141072 1.998292,4.132124 0.634391,0.677146 2.049436,0.767064 2.780056,0.184859 0.652198,-0.51975 0.518954,-1.445524 0.518954,-2.183383 0,-1.783244 -0.122,-3.615518 0.1016,-5.3848 h -1.6256 v 4.7752 c 0,0.320259 0.164121,1.350983 -0.233918,1.488879 -0.492707,0.170696 -0.835157,-0.9803 -0.971153,-1.285679 -0.606531,-1.361935 -1.170993,-3.456011 -2.18739,-4.550283 -0.818144,-0.880829 -2.767753,-0.714123 -3.186218,0.486675 -0.249343,0.715539 -0.12692,1.58996 -0.12692,2.336408 v 4.571999 m 10.058399,0 h 1.625599 v -2.438399 -1.524 c 0,-0.338855 -0.269451,-2.375334 0.293053,-2.272673 0.445294,0.08126 0.728742,1.396532 0.867595,1.764673 0.657728,1.743768 1.188111,5.121155 3.716152,4.517905 1.775777,-0.423732 1.2192,-3.266275 1.2192,-4.619505 0,-0.262633 -0.159015,-1.748512 0.306308,-1.663073 0.491463,0.09024 0.833543,1.652611 0.979619,2.069473 0.345943,0.987173 0.720514,1.965274 1.083257,2.9464 0.120994,0.327263 0.226404,0.903753 0.527447,1.114779 0.363564,0.254865 1.14681,0.10442 1.573768,0.10442 -0.366792,-1.547891 -1.073573,-3.077458 -1.620176,-4.571999 -0.300619,-0.821912 -0.508793,-1.811911 -1.00621,-2.539608 -0.617855,-0.903891 -2.243561,-1.192453 -3.020642,-0.291629 -0.796766,0.923658 -0.347371,3.301878 -0.347371,4.456837 0,0.268592 0.141261,1.401389 -0.309192,1.401389 -0.445294,0 -0.684398,-1.082482 -0.803302,-1.401389 -0.490431,-1.31553 -0.880136,-3.430802 -1.855602,-4.459345 -0.810286,-0.854353 -2.659485,-0.694997 -3.063054,0.496945 -0.670825,1.981213 -0.166449,4.829476 -0.166449,6.908799 m 21.335997,0 h 1.524 v -4.775199 c 0,-0.334801 -0.167376,-1.45578 0.323612,-1.531995 0.475244,-0.07377 0.765809,1.01197 0.920458,1.328795 0.666142,1.364776 1.123368,3.32714 2.131563,4.465931 0.811318,0.916418 2.834691,0.915257 3.264061,-0.401931 0.65405,-2.006553 0.1675,-4.812152 0.1675,-6.9088 h -1.625595 v 4.7752 c 0,0.320262 0.164121,1.350983 -0.233918,1.488879 -0.4962,0.171902 -0.820896,-0.982737 -0.962925,-1.285679 -0.638889,-1.362771 -1.14501,-3.459038 -2.190511,-4.550283 -0.829628,-0.865925 -2.768362,-0.727024 -3.191325,0.486675 -0.249343,0.715536 -0.12692,1.58996 -0.12692,2.336408 v 4.571999 M 21.704055,17.993039 v 1.4224 c 0.61804,0 1.570686,-0.178091 2.129131,0.119787 0.687062,0.366483 0.542949,1.250183 -0.09901,1.575115 -0.594903,0.301112 -1.835647,0.224652 -2.436439,-0.03254 -1.484392,-0.635439 -1.563891,-3.34365 -0.303311,-4.237645 1.067549,-0.757098 3.123226,-0.371121 4.367231,-0.371121 v -1.524 c -1.749224,0 -4.374099,-0.459591 -5.760624,0.860306 -1.8126,1.725496 -1.318501,6.146252 1.290224,6.809001 1.115272,0.283335 2.953028,0.403532 3.958323,-0.25196 1.172678,-0.764632 1.287681,-3.161826 0.101287,-3.966003 -0.801404,-0.543219 -2.306187,-0.403344 -3.24681,-0.403344 m 8.331199,-3.004489 c -2.946132,0.422056 -4.150531,4.502695 -2.201725,6.759611 0.986671,1.142669 2.947681,1.175803 4.335325,0.976567 2.938041,-0.421844 4.011289,-4.575172 2.086094,-6.754203 -0.978657,-1.107692 -2.853883,-1.177637 -4.219694,-0.981975 m 5.486399,-0.04351 c 0.6243,1.918639 1.399758,3.785894 2.066886,5.6896 0.257469,0.734711 0.485738,1.800788 1.286306,2.118547 0.700693,0.278114 1.835808,0.18755 2.342602,-0.413064 0.509746,-0.604116 0.708239,-1.586127 0.990597,-2.315083 0.653494,-1.6871 1.369893,-3.366381 1.949609,-5.08 -0.434928,0 -1.292836,-0.165094 -1.656175,0.104421 -0.294376,0.21836 -0.407988,0.788715 -0.538417,1.114779 -0.364945,0.912328 -0.717941,1.828853 -1.077227,2.7432 -0.136702,0.34789 -0.700807,2.341462 -1.152644,2.25856 -0.297317,-0.05455 -0.435269,-0.704609 -0.52156,-0.93776 -0.35211,-0.951357 -0.728768,-1.893604 -1.080753,-2.8448 -0.298514,-0.806701 -0.655492,-1.608484 -0.882023,-2.4384 h -1.727201 m 10.464799,3.8608 c -1.297683,0.832173 -1.420291,2.936933 0.1016,3.665831 1.507022,0.721778 3.849798,0.296568 5.4864,0.296568 v -1.523999 c -1.274625,0 -2.590641,0.09523 -3.8608,-0.0095 -0.471717,-0.03889 -1.043839,-0.253828 -1.083341,-0.803626 -0.04008,-0.55779 0.507772,-0.835274 0.981741,-0.895274 1.249942,-0.158231 2.600772,-0.01881 3.8608,-0.01881 v -1.3208 c -1.220134,0 -2.553925,0.151395 -3.7592,-0.04468 -0.444267,-0.07228 -1.103209,-0.297633 -1.050335,-0.869715 0.04727,-0.511463 0.611458,-0.745074 1.050335,-0.795083 1.257049,-0.143238 2.595565,-0.01772 3.8608,-0.01772 v -1.524 c -1.656088,0 -4.215138,-0.469063 -5.688113,0.429215 -1.210061,0.737942 -1.218781,2.846173 0.100113,3.431585 m 7.315199,-3.8608 v 1.524 c 1.305103,0 3.123406,-0.328898 4.368419,0.06632 0.766339,0.243276 1.054602,1.18751 0.294508,1.646689 -1.156372,0.69859 -3.510579,-0.502782 -4.407516,0.545394 -0.673344,0.786884 -0.255411,3.047846 -0.255411,4.040795 h 1.524 v -2.946399 l 1.818214,0.10442 1.877872,2.737559 1.688703,0.10442 -1.7272,-3.149599 c 1.750034,-0.338659 2.073831,-3.172439 0.701728,-4.154625 -1.444281,-1.033846 -4.198516,-0.518975 -5.883317,-0.518975 m 32.308786,3.8608 c -1.213485,0.846952 -1.407107,2.948027 0.1016,3.665754 1.510585,0.718616 3.850348,0.296645 5.486399,0.296645 v -1.523999 c -1.273042,0 -2.592731,0.101081 -3.860799,-0.0096 -0.442331,-0.0386 -1.003512,-0.294875 -1.050317,-0.803312 -0.05186,-0.562959 0.594572,-0.844674 1.050317,-0.896607 1.224174,-0.139488 2.527114,-0.01772 3.759199,-0.01772 v -1.3208 c -1.220126,0 -2.553917,0.151395 -3.759199,-0.04468 -0.456592,-0.07428 -1.072595,-0.292264 -1.024467,-0.869403 0.04546,-0.544846 0.664131,-0.765545 1.126067,-0.803626 1.236821,-0.101955 2.518065,-0.0095 3.759199,-0.0095 v -1.524 c -1.64965,0 -4.086251,-0.434773 -5.586491,0.37324 -1.271878,0.685022 -1.251638,2.833108 -0.0016,3.48756 m 16.865603,-3.8608 v 1.524 h 2.1336 v 6.299199 h 1.62559 v -6.299199 h 2.2352 v -1.524 h -5.99439 M 30.339975,16.49844 c 0.96307,-0.126701 2.270722,-0.100844 2.874983,0.784968 0.855379,1.253934 0.397907,3.686849 -1.249384,3.930255 -0.873683,0.129096 -2.241319,0.189707 -2.892305,-0.510899 -1.221965,-1.315101 -0.547238,-3.965689 1.266706,-4.204324 z"
       id="path1-2"
       transform="matrix(7.5590556,0,0,7.5590556,1511.6788,422.5391)" />
  </g>
</svg>
