<?xml version="1.0" encoding="UTF-8" standalone="no"?>
<!-- Created with Inkscape (http://www.inkscape.org/) -->

<svg
   width="127.47255mm"
   height="37.010139mm"
   viewBox="0 0 127.47255 37.01014"
   version="1.1"
   id="svg1"
   inkscape:version="1.3.2 (091e20e, 2023-11-25, custom)"
   sodipodi:docname="MILITARY2.svg"
   xmlns:inkscape="http://www.inkscape.org/namespaces/inkscape"
   xmlns:sodipodi="http://sodipodi.sourceforge.net/DTD/sodipodi-0.dtd"
   xmlns="http://www.w3.org/2000/svg"
   xmlns:svg="http://www.w3.org/2000/svg">
  <sodipodi:namedview
     id="namedview1"
     pagecolor="#505050"
     bordercolor="#eeeeee"
     borderopacity="1"
     inkscape:showpageshadow="0"
     inkscape:pageopacity="0"
     inkscape:pagecheckerboard="0"
     inkscape:deskcolor="#505050"
     inkscape:document-units="mm"
     inkscape:zoom="0.69219276"
     inkscape:cx="239.81759"
     inkscape:cy="71.511872"
     inkscape:window-width="1902"
     inkscape:window-height="973"
     inkscape:window-x="15"
     inkscape:window-y="56"
     inkscape:window-maximized="0"
     inkscape:current-layer="g292" />
  <defs
     id="defs1" />
  <g
     id="g292"
     transform="matrix(0.13229166,0,0,0.13229166,-199.9825,-55.898399)">
    <path
       fill="none"
       stroke-width="40"
       stroke-linecap="butt"
       stroke-linejoin="miter"
       stroke="#07d7fb"
       stroke-opacity="1"
       stroke-miterlimit="10"
       d="m 24729.414,15975.781 -92.695,-160.468 -703.321,-1218.321 h -7997.382 l -796.133,1378.789 796.133,1378.828 h 7997.382 z m 0,0"
       transform="matrix(0.1,0,0,-0.1,0,2160)"
       id="path121" />
    <path
       fill-rule="nonzero"
       fill="#07d7fb"
       fill-opacity="1"
       d="m 1974.8906,662.51953 h 158.5977 l -21.8086,37.78125 h -158.6016 l 21.8125,-37.78125"
       id="path148" />
    <path
       fill-rule="nonzero"
       fill="#07d7fb"
       fill-opacity="1"
       d="m 2463.6719,578.46875 -70.3321,121.83203 h -190.6992 l 21.8086,-37.78125 h 99.7422 l 48.5195,-84.05078 h 90.961"
       id="path149" />
    <path
       style="fill:#ffffff;stroke-width:0.00529167"
       d="m 32.705908,24.152933 c -0.562832,-0.139991 -1.015759,-0.475237 -1.29128,-0.955776 -0.230026,-0.401193 -0.234532,-0.467775 -0.264467,-3.909022 -0.02,-2.299012 -0.06787,-3.545961 -0.139441,-3.6322 -0.176456,-0.212616 -0.485759,-0.151296 -0.609777,0.120888 -0.0632,0.138716 -0.782574,2.047526 -1.598602,4.2418 l -1.483688,3.989591 -1.091617,0.02884 c -0.600393,0.01586 -1.091621,0.0091 -1.091621,-0.01493 0,-0.193566 3.313737,-9.145165 3.508277,-9.477122 0.436824,-0.745384 1.087329,-1.051624 2.232122,-1.050825 0.733624,5.03e-4 1.543394,0.338831 1.852779,0.774084 0.388594,0.546682 0.432067,0.986123 0.432655,4.3733 5.03e-4,2.836158 0.02172,3.290495 0.160224,3.428999 0.216119,0.21612 0.316372,0.201301 0.496345,-0.07337 0.08398,-0.128167 0.721375,-1.722866 1.416438,-3.543776 0.695066,-1.82091 1.356238,-3.492026 1.469271,-3.713591 0.430035,-0.842938 1.157795,-1.246071 2.249487,-1.246071 1.115108,0 1.835767,0.408345 2.196793,1.244762 0.168635,0.390691 0.189095,0.841586 0.221239,4.875505 l 0.03542,4.445 h -1.0732 -1.073197 l -0.02653,-4.179953 c -0.02434,-3.836035 -0.041,-4.189082 -0.202419,-4.290877 -0.134125,-0.08458 -0.212884,-0.07394 -0.331658,0.04484 -0.08567,0.08567 -0.773729,1.776534 -1.529024,3.757477 -0.837552,2.196682 -1.483066,3.740435 -1.654733,3.957317 -0.545965,0.689755 -1.813443,1.052938 -2.809798,0.805119 z m 11.123905,-5.326319 v -5.232399 h 1.016 1.015999 v 5.232399 5.2324 h -1.015999 -1.016 z m 7.051721,5.127683 C 49.914705,23.762614 49.152909,23.269841 48.743556,22.571336 48.238218,21.70904 48.201118,21.351284 48.199819,17.328015 l -0.0012,-3.7338 h 1.012383 1.01238 l 0.02902,3.7011 c 0.02787,3.555195 0.03729,3.7124 0.238774,3.987799 0.115366,0.157684 0.389686,0.37814 0.6096,0.4899 0.359052,0.18247 0.640823,0.206626 2.762043,0.236783 l 2.3622,0.03359 v 1.007813 1.007817 l -2.4638,-0.01113 c -1.35509,-0.0061 -2.650945,-0.04823 -2.879677,-0.09358 z m 7.070677,-5.127683 v -5.232399 h 1.016 1.016 v 5.232399 5.2324 h -1.016 -1.016 z m 6.603999,1.0668 v -4.165599 h -1.4732 -1.4732 v -1.016 -1.016 h 4.0132 4.013199 v 1.016 1.016 h -1.473199 -1.4732 v 4.165599 4.1656 h -1.0668 -1.0668 z m 4.801631,4.0386 c 2.112539,-5.570754 3.493876,-9.151659 3.644821,-9.448685 0.106468,-0.209489 0.383566,-0.506669 0.615764,-0.6604 0.390499,-0.258517 0.49911,-0.279514 1.445789,-0.279514 1.19888,0 1.664097,0.171593 2.040017,0.752478 0.129963,0.200816 0.968004,2.353942 1.862296,4.784721 0.894291,2.43078 1.674283,4.54533 1.733312,4.699 l 0.107341,0.2794 H 79.666589 78.52597 l -1.579721,-4.191 c -1.945772,-5.162144 -1.757177,-4.989718 -2.750237,-2.514599 -0.369941,0.922019 -1.118579,2.807969 -1.663647,4.190999 l -0.99105,2.5146 h -1.115827 c -0.850609,0 -1.104371,-0.03019 -1.067647,-0.127 z m 12.893674,-2.286 c 0.03874,-2.620624 0.07541,-2.809232 0.625263,-3.216664 0.268473,-0.198929 0.451617,-0.215542 2.900547,-0.263136 2.263034,-0.04398 2.650331,-0.07467 2.884858,-0.2286 0.748691,-0.491423 0.670745,-1.665586 -0.138165,-2.081302 -0.177483,-0.09121 -1.070081,-0.125912 -3.26681,-0.127 l -3.0226,-0.0015 v -1.0414 -1.0414 l 3.225826,0.03066 c 3.38275,0.03215 3.863683,0.08716 4.568957,0.522637 1.206791,0.745101 1.602157,2.79333 0.838596,4.344346 -0.324908,0.659977 -0.881379,1.186667 -1.388136,1.31386 -0.129143,0.03241 -0.233839,0.111115 -0.232701,0.174908 0.0011,0.06379 0.503211,0.984665 1.115695,2.046385 l 1.113631,1.9304 -1.032616,0.02916 c -0.567954,0.01604 -1.084447,0.0093 -1.147736,-0.01501 -0.06331,-0.02429 -0.614865,-0.894665 -1.225655,-1.934159 l -1.110589,-1.88999 h -1.295849 -1.295823 v 1.930399 1.9304 h -1.076166 -1.076167 z m 13.292691,0.205753 v -2.207249 l -2.000805,-2.971686 c -1.100429,-1.634429 -1.97612,-2.996347 -1.945984,-3.026491 0.03014,-0.03014 0.586634,-0.02443 1.236689,0.0127 l 1.181867,0.0675 1.288097,2.092838 c 0.708449,1.151059 1.297438,2.10557 1.308894,2.121138 0.01143,0.01556 0.623623,-0.927841 1.360408,-2.09646 1.186153,-1.881317 1.375463,-2.131928 1.652323,-2.187302 0.349541,-0.06991 2.116115,-0.08651 2.116115,-0.01988 0,0.02346 -0.9144,1.390806 -2.032004,3.038546 l -2.032,2.995887 v 2.193854 2.193856 h -1.0668 -1.0668 z"
       id="path1-5"
       transform="matrix(7.5590556,0,0,7.5590556,1511.6788,422.5391)" />
  </g>
</svg>
