<?xml version="1.0" encoding="UTF-8" standalone="no"?>
<!-- Created with Inkscape (http://www.inkscape.org/) -->

<svg
   width="127.47255mm"
   height="37.010139mm"
   viewBox="0 0 127.47255 37.01014"
   version="1.1"
   id="svg1"
   inkscape:version="1.3.2 (091e20e, 2023-11-25, custom)"
   sodipodi:docname="NEBULON2.svg"
   xmlns:inkscape="http://www.inkscape.org/namespaces/inkscape"
   xmlns:sodipodi="http://sodipodi.sourceforge.net/DTD/sodipodi-0.dtd"
   xmlns="http://www.w3.org/2000/svg"
   xmlns:svg="http://www.w3.org/2000/svg">
  <sodipodi:namedview
     id="namedview1"
     pagecolor="#505050"
     bordercolor="#eeeeee"
     borderopacity="1"
     inkscape:showpageshadow="0"
     inkscape:pageopacity="0"
     inkscape:pagecheckerboard="0"
     inkscape:deskcolor="#505050"
     inkscape:document-units="mm"
     inkscape:zoom="0.69219276"
     inkscape:cx="239.81759"
     inkscape:cy="71.511872"
     inkscape:window-width="1902"
     inkscape:window-height="973"
     inkscape:window-x="15"
     inkscape:window-y="56"
     inkscape:window-maximized="0"
     inkscape:current-layer="g292" />
  <defs
     id="defs1" />
  <g
     id="g292"
     transform="matrix(0.13229166,0,0,0.13229166,-199.9825,-55.898399)">
    <path
       fill="none"
       stroke-width="40"
       stroke-linecap="butt"
       stroke-linejoin="miter"
       stroke="#07d7fb"
       stroke-opacity="1"
       stroke-miterlimit="10"
       d="m 24729.414,15975.781 -92.695,-160.468 -703.321,-1218.321 h -7997.382 l -796.133,1378.789 796.133,1378.828 h 7997.382 z m 0,0"
       transform="matrix(0.1,0,0,-0.1,0,2160)"
       id="path121" />
    <path
       fill-rule="nonzero"
       fill="#07d7fb"
       fill-opacity="1"
       d="m 1974.8906,662.51953 h 158.5977 l -21.8086,37.78125 h -158.6016 l 21.8125,-37.78125"
       id="path148" />
    <path
       fill-rule="nonzero"
       fill="#07d7fb"
       fill-opacity="1"
       d="m 2463.6719,578.46875 -70.3321,121.83203 h -190.6992 l 21.8086,-37.78125 h 99.7422 l 48.5195,-84.05078 h 90.961"
       id="path149" />
    <path
       style="fill:#ffffff;stroke:none;stroke-width:0.00529167"
       d="m 23.855584,24.104848 h 2.032 v -6.502399 c 0,-0.456102 -0.223721,-1.913266 0.465275,-2.000015 0.549839,-0.06923 1.032468,1.506522 1.203441,1.898415 0.624795,1.432105 1.283661,2.860061 1.962621,4.2672 0.297746,0.617079 0.490064,1.301813 0.973746,1.809985 1.05872,1.112332 3.642857,0.960509 4.22063,-0.590785 0.37175,-0.99813 0.216686,-2.207191 0.216686,-3.2512 v -5.9944 h -2.1336 v 6.4008 c 0,0.421444 0.225169,1.821309 -0.31946,1.969754 -0.644073,0.175548 -1.083249,-1.348251 -1.274784,-1.766554 -0.84692,-1.849644 -1.543978,-4.57232 -2.909554,-6.086435 -1.060643,-1.176015 -3.715416,-1.012947 -4.27347,0.600035 -0.332912,0.962242 -0.163531,2.146454 -0.163531,3.1496 v 6.095999 m 68.376777,0 h 2.032 v -6.502399 c 0,-0.43529 -0.228335,-1.852891 0.410792,-1.938396 0.585311,-0.07831 1.034388,1.419451 1.214808,1.836796 0.532685,1.232038 1.147445,2.427711 1.684099,3.6576 0.330888,0.758359 0.623305,1.710806 1.182343,2.33241 1.051084,1.168699 3.674537,1.106704 4.289927,-0.50361 0.34629,-0.90614 0.15883,-2.093463 0.15883,-3.048 v -6.1976 h -2.032 v 6.4008 c 0,0.478462 0.2299,1.820846 -0.41079,1.985118 -0.60235,0.154453 -1.049525,-1.379093 -1.228912,-1.781918 -0.65061,-1.460934 -1.305163,-2.924508 -1.991942,-4.3688 -0.285961,-0.601377 -0.49194,-1.313842 -0.973746,-1.795404 -1.075002,-1.074505 -3.69734,-0.902465 -4.210975,0.677804 -0.300223,0.923591 -0.124434,2.086878 -0.124434,3.048 v 6.197599 M 38.282783,18.821649 v 0.1016 c -1.853629,0.718196 -1.730502,3.773699 -0.101212,4.683244 1.987451,1.109482 5.314946,0.498355 7.518009,0.498355 v -2.031999 c -1.731888,0 -3.561929,0.170182 -5.283199,-0.01764 -0.641091,-0.06995 -1.353901,-0.458528 -1.30277,-1.201483 0.04992,-0.725387 0.780348,-0.998056 1.40437,-1.014587 1.69078,-0.0448 3.388571,-0.0015 5.079999,-0.0015 v -1.9304 c -1.691436,0 -3.389219,0.04331 -5.079999,-0.0015 -0.599297,-0.01588 -1.37897,-0.285961 -1.37897,-1.014589 0,-0.673604 0.681833,-1.078744 1.27737,-1.113132 1.748726,-0.100981 3.531311,-0.0044 5.283199,-0.0044 v -2.032 h -4.571999 c -1.009629,0 -2.037965,-0.06807 -2.946322,0.460179 -1.541584,0.896496 -1.803183,3.986316 0.101524,4.619821 m 17.271996,0.1016 c 1.531956,-0.907835 2.098556,-3.267223 0.506431,-4.517906 -1.44381,-1.134168 -3.970879,-0.663694 -5.68803,-0.663694 -0.549069,0 -1.550712,-0.190725 -2.008796,0.162907 -0.548635,0.423529 -0.328004,1.565711 -0.328004,2.173893 v 5.6896 c 0,0.57214 -0.20528,1.645475 0.247258,2.081389 0.435205,0.419219 1.335897,0.255411 1.886342,0.255411 1.660474,0 3.594949,0.268673 5.181599,-0.314286 1.829075,-0.672025 2.554988,-4.412204 0.2032,-4.867314 m 3.454386,-5.1816 v 5.6896 c 0,1.119079 -0.08707,2.345936 0.495856,3.352411 1.038728,1.79339 4.681775,1.602713 6.412943,1.126064 0.655955,-0.180605 1.238727,-0.525754 1.588691,-1.125752 0.575522,-0.986689 0.443309,-2.156994 0.443309,-3.251123 v -5.7912 h -2.032 v 5.2832 c 0,0.704914 0.182298,1.710568 -0.204126,2.334919 -0.693075,1.11979 -3.806295,1.09547 -4.423039,-0.101288 -0.328162,-0.636738 -0.148034,-1.637686 -0.148034,-2.335231 v -5.1816 h -2.1336 m 11.277599,0 v 6.2992 c 0,1.248272 0.119539,2.569456 1.220708,3.374199 1.721961,1.258443 4.793588,0.689801 6.805691,0.689801 v -2.032 c -1.441582,0 -4.058179,0.500668 -5.281612,-0.371044 -0.824574,-0.587504 -0.712787,-1.476467 -0.712787,-2.372156 v -5.588 h -2.032 m 12.598398,0.04461 c -3.737821,0.588351 -4.69765,6.069669 -2.58781,8.794514 1.401339,1.809803 4.395391,1.776867 6.44861,1.390962 3.553671,-0.667911 4.442777,-6.102283 2.398739,-8.706085 -1.387475,-1.767448 -4.203409,-1.803035 -6.259539,-1.479391 M 50.06838,18.008862 v -2.2352 c 1.196734,0 3.587688,-0.621559 4.52943,0.34486 0.590257,0.605724 0.292555,1.512531 -0.46692,1.765928 -1.191856,0.397656 -2.815074,0.124412 -4.06251,0.124412 m 33.324782,-2.204625 c 1.205971,-0.178194 3.129571,-0.273608 4.009919,0.7112 1.487884,1.664455 0.694849,5.15593 -1.571519,5.512816 -1.214226,0.191209 -3.151981,0.22619 -3.948906,-0.887431 -1.131834,-1.581631 -0.691594,-5.0112 1.510506,-5.336585 M 50.06838,22.072862 v -2.3368 c 1.123256,0 3.833764,-0.494514 4.629538,0.428117 0.53626,0.621747 0.151127,1.55507 -0.56593,1.805278 -1.157978,0.404059 -2.844017,0.103405 -4.063608,0.103405 z"
       id="path1-6"
       transform="matrix(7.5590556,0,0,7.5590556,1511.6788,422.5391)" />
  </g>
</svg>
