<?xml version="1.0" encoding="UTF-8" standalone="no"?>
<!-- Created with Inkscape (http://www.inkscape.org/) -->

<svg
   width="127.47255mm"
   height="37.010139mm"
   viewBox="0 0 127.47255 37.01014"
   version="1.1"
   id="svg1"
   inkscape:version="1.3.2 (091e20e, 2023-11-25, custom)"
   sodipodi:docname="WELCOME2.svg"
   xmlns:inkscape="http://www.inkscape.org/namespaces/inkscape"
   xmlns:sodipodi="http://sodipodi.sourceforge.net/DTD/sodipodi-0.dtd"
   xmlns="http://www.w3.org/2000/svg"
   xmlns:svg="http://www.w3.org/2000/svg">
  <sodipodi:namedview
     id="namedview1"
     pagecolor="#505050"
     bordercolor="#eeeeee"
     borderopacity="1"
     inkscape:showpageshadow="0"
     inkscape:pageopacity="0"
     inkscape:pagecheckerboard="0"
     inkscape:deskcolor="#505050"
     inkscape:document-units="mm"
     inkscape:zoom="0.69219276"
     inkscape:cx="239.81759"
     inkscape:cy="71.511872"
     inkscape:window-width="1902"
     inkscape:window-height="973"
     inkscape:window-x="15"
     inkscape:window-y="56"
     inkscape:window-maximized="0"
     inkscape:current-layer="g292" />
  <defs
     id="defs1" />
  <g
     id="g292"
     transform="matrix(0.13229166,0,0,0.13229166,-199.9825,-55.898399)">
    <path
       fill="none"
       stroke-width="40"
       stroke-linecap="butt"
       stroke-linejoin="miter"
       stroke="#07d7fb"
       stroke-opacity="1"
       stroke-miterlimit="10"
       d="m 24729.414,15975.781 -92.695,-160.468 -703.321,-1218.321 h -7997.382 l -796.133,1378.789 796.133,1378.828 h 7997.382 z m 0,0"
       transform="matrix(0.1,0,0,-0.1,0,2160)"
       id="path121" />
    <path
       fill-rule="nonzero"
       fill="#07d7fb"
       fill-opacity="1"
       d="m 1974.8906,662.51953 h 158.5977 l -21.8086,37.78125 h -158.6016 l 21.8125,-37.78125"
       id="path148" />
    <path
       fill-rule="nonzero"
       fill="#07d7fb"
       fill-opacity="1"
       d="m 2463.6719,578.46875 -70.3321,121.83203 h -190.6992 l 21.8086,-37.78125 h 99.7422 l 48.5195,-84.05078 h 90.961"
       id="path149" />
    <path
       style="fill:#ffffff;stroke:none;stroke-width:0.00529167"
       d="m 22.078949,13.733265 -2.2352,-0.1016 c 0.509294,2.201434 1.502823,4.386909 2.293683,6.502401 0.37887,1.013452 0.610119,2.258724 1.24201,3.149208 0.845039,1.19086 3.090629,1.392052 4.041737,0.199202 1.026195,-1.28702 0.448969,-4.327313 0.448969,-5.88841 0,-0.398486 -0.215201,-1.859223 0.36485,-1.953761 0.53594,-0.08735 1.088771,2.060843 1.241229,2.461761 0.619622,1.629421 1.080669,4.0318 2.2069,5.375312 0.749384,0.89396 2.417487,1.064024 3.396622,0.455165 0.906116,-0.563457 0.918398,-1.52709 0.918398,-2.477677 v -5.283201 c 0,-0.576493 0.373891,-1.90146 -0.0028,-2.377096 -0.303067,-0.382651 -1.579216,-0.162904 -2.02918,-0.162904 v 3.251201 2.1336 c 0,0.81044 0.03321,1.628764 -0.002,2.4384 -0.0101,0.232555 -0.05564,0.687681 -0.399423,0.631706 -0.586536,-0.0955 -1.009245,-1.966725 -1.191839,-2.460506 -0.836755,-2.262772 -1.442947,-6.312104 -4.502776,-6.08683 -2.880177,0.21205 -2.032,4.403678 -2.032,6.39163 0,0.453464 0.230531,1.8855 -0.246787,2.141598 -0.312701,0.167775 -0.543592,-0.299995 -0.642525,-0.516075 -0.358587,-0.783177 -0.608484,-1.630627 -0.907111,-2.438323 -0.275997,-0.746485 -0.566399,-1.487757 -0.839769,-2.2352 -0.377706,-1.03272 -0.869555,-2.080073 -1.123008,-3.149601 m 57.810391,10.3632 c 0.538056,0 1.627901,0.208958 2.082879,-0.10442 0.404151,-0.278397 0.571605,-1.179229 0.727022,-1.622779 0.489002,-1.395357 1.015338,-2.783075 1.539372,-4.1656 0.2032,-0.536048 0.559091,-2.314967 1.154377,-2.50488 0.692837,-0.221046 0.490749,1.856225 0.490749,2.20008 0,1.831435 -0.801793,5.767064 1.6256,6.28697 3.370394,0.721882 4.067359,-3.840982 4.958873,-6.18537 0.176874,-0.465119 0.573801,-2.256225 1.125299,-2.358907 0.308663,-0.05748 0.395314,0.425284 0.412353,0.631706 0.0662,0.802133 0.0059,1.633502 0.0059,2.438401 v 2.1336 3.251199 h 2.031999 v -6.197599 c 0,-0.96112 0.17579,-2.124415 -0.124407,-3.048001 -0.52742,-1.622581 -3.078268,-1.732788 -4.12398,-0.60521 -1.314132,1.417034 -1.790594,4.206397 -2.497746,5.990011 -0.149516,0.377121 -0.508899,1.959316 -1.066403,1.866273 -0.529854,-0.08842 -0.315462,-1.589556 -0.315462,-1.967873 0,-1.583391 0.569859,-4.573821 -0.486596,-5.873986 -0.9076,-1.116954 -3.176666,-0.976963 -3.973141,0.185954 -0.685456,1.000834 -0.953876,2.327496 -1.37459,3.452832 -0.752422,2.012717 -1.707806,4.104359 -2.192072,6.197599 M 39.452549,18.813266 v 0.1016 c -1.86179,0.619231 -1.715512,3.700518 -0.202808,4.624916 1.962962,1.199552 5.404095,0.556683 7.619607,0.556683 v -2.031999 c -1.731888,0 -3.561931,0.170182 -5.283199,-0.01764 -0.679842,-0.07418 -1.416201,-0.515964 -1.296027,-1.302769 0.110109,-0.720907 0.884923,-0.906816 1.499227,-0.914399 1.658906,-0.02048 3.319351,-3.97e-4 4.978399,-3.97e-4 v -1.9304 c -1.691481,0 -3.389153,0.04276 -5.079999,-0.0015 -0.618725,-0.01619 -1.367102,-0.270788 -1.381479,-1.01451 -0.01314,-0.67966 0.683085,-1.078747 1.279879,-1.113212 1.748729,-0.100978 3.531309,-0.0044 5.283199,-0.0044 v -2.032 h -4.571999 c -1.010647,0 -2.036667,-0.06699 -2.9464,0.460179 -1.53073,0.887029 -1.819785,4.004581 0.1016,4.619822 m 9.651999,-5.080001 v 6.299201 c 0,1.248269 0.119515,2.569453 1.220687,3.374199 1.721974,1.258443 4.793606,0.6898 6.805712,0.6898 v -2.032 c -1.438928,0 -4.056202,0.497949 -5.28163,-0.37112 -0.825334,-0.585324 -0.712769,-1.477952 -0.712769,-2.372079 v -5.588001 h -2.032 m 17.779995,10.3632 v -2.032 c -1.585806,0 -4.085325,0.466659 -5.48632,-0.405852 -1.659599,-1.03356 -1.738762,-4.541898 2.65e-4,-5.551311 1.404514,-0.815223 3.907366,-0.342037 5.486002,-0.342037 v -2.032 c -2.082403,0 -4.948739,-0.514509 -6.807199,0.602467 -2.71254,1.63028 -2.695072,7.314732 -0.1016,9.038873 1.854703,1.233016 4.792027,0.72186 6.908799,0.72186 m 5.1816,-10.318591 c -3.730387,0.587179 -4.694052,6.074111 -2.58781,8.794515 1.418722,1.832416 4.377398,1.742804 6.448609,1.39347 3.625744,-0.611518 4.35647,-6.114147 2.41292,-8.708203 -1.337018,-1.784532 -4.252171,-1.797983 -6.273719,-1.479782 m 27.431996,5.035392 v 0.1016 c -1.887537,0.603136 -1.702197,3.697464 -0.20312,4.626014 1.945134,1.204854 5.414904,0.555585 7.619924,0.555585 v -2.032 c -1.73189,0 -3.56193,0.170183 -5.2832,-0.01764 -0.64056,-0.06989 -1.4038,-0.490445 -1.32229,-1.244677 0.0773,-0.715325 0.80884,-0.955297 1.42389,-0.971396 1.69084,-0.04425 3.38851,-0.0015 5.08,-0.0015 v -1.9304 c -1.65939,0 -3.31904,0.0086 -4.9784,0 -0.61894,-0.0032 -1.406,-0.163526 -1.49633,-0.9144 -0.0806,-0.670058 0.59516,-1.148909 1.19153,-1.208461 1.75887,-0.175639 3.61656,-0.01066 5.3848,-0.01066 v -2.031997 h -4.6736 c -0.96801,0 -1.98142,-0.06658 -2.844804,0.455086 -1.499367,0.905941 -1.880208,4.035886 0.1016,4.624914 M 72.57409,15.795928 c 1.180491,-0.174429 3.154785,-0.282771 4.009918,0.699439 1.532017,1.759708 0.667226,5.189649 -1.673119,5.525675 -1.215813,0.174567 -2.984446,0.198745 -3.804205,-0.872458 -1.18917,-1.553977 -0.738822,-5.026661 1.467406,-5.352656 z"
       id="path1-4"
       transform="matrix(7.5590556,0,0,7.5590556,1511.6788,422.5391)" />
  </g>
</svg>
